<?xml version="1.0" standalone="no"?><!-- Generator: Gravit.io --><svg xmlns="http://www.w3.org/2000/svg" xmlns:xlink="http://www.w3.org/1999/xlink" style="isolation:isolate" viewBox="0 0 166.418 116.304" width="166.418" height="116.304"><defs><clipPath id="_clipPath_3gB0u9m0HmBysfsQHNbBkldxGrGp9lW9"><rect width="166.418" height="116.304"/></clipPath></defs><g clip-path="url(#_clipPath_3gB0u9m0HmBysfsQHNbBkldxGrGp9lW9)"><linearGradient id="_lgradient_0" x1="0%" y1="50%" x2="100%" y2="50%"><stop offset="0%" stop-opacity="1" style="stop-color:rgb(49,230,76)"/><stop offset="0%" stop-opacity="1" style="stop-color:rgb(117,255,4)"/><stop offset="100%" stop-opacity="1" style="stop-color:rgb(63,242,251)"/></linearGradient><path d=" M 111.473 101.304 L 64.473 101.304 L 17.473 101.304 C 15.265 101.304 14.369 99.752 15.473 97.84 L 38.973 57.137 L 62.473 16.434 C 63.576 14.522 65.369 14.522 66.473 16.434 L 89.973 57.137 L 113.473 97.84 C 114.576 99.752 113.68 101.304 111.473 101.304 Z " fill="url(#_lgradient_0)" vector-effect="non-scaling-stroke" stroke-width="10" stroke="rgb(255,255,255)" stroke-linejoin="miter" stroke-linecap="square" stroke-miterlimit="3"/><linearGradient id="_lgradient_1" x1="0%" y1="50%" x2="100%" y2="50%"><stop offset="0%" stop-opacity="1" style="stop-color:rgb(49,230,76)"/><stop offset="0%" stop-opacity="1" style="stop-color:rgb(117,255,4)"/><stop offset="100%" stop-opacity="1" style="stop-color:rgb(63,242,251)"/></linearGradient><path d=" M 148.945 101.304 L 113.945 101.304 L 78.945 101.304 C 76.737 101.304 75.841 99.752 76.945 97.84 L 94.445 67.529 L 111.945 37.219 C 113.049 35.307 114.841 35.307 115.945 37.219 L 133.445 67.529 L 150.945 97.84 C 152.049 99.752 151.153 101.304 148.945 101.304 Z " fill="url(#_lgradient_1)" vector-effect="non-scaling-stroke" stroke-width="10" stroke="rgb(255,255,255)" stroke-linejoin="miter" stroke-linecap="square" stroke-miterlimit="3"/></g></svg>